<?xml version="1.0" encoding="UTF-8" standalone="no"?>
<!-- Created with Inkscape (http://www.inkscape.org/) -->

<svg
   xmlns:dc="http://purl.org/dc/elements/1.1/"
   xmlns:cc="http://creativecommons.org/ns#"
   xmlns:rdf="http://www.w3.org/1999/02/22-rdf-syntax-ns#"
   xmlns:svg="http://www.w3.org/2000/svg"
   xmlns="http://www.w3.org/2000/svg"
   xmlns:sodipodi="http://sodipodi.sourceforge.net/DTD/sodipodi-0.dtd"
   xmlns:inkscape="http://www.inkscape.org/namespaces/inkscape"
   width="210mm"
   height="297mm"
   viewBox="0 0 210 297"
   version="1.1"
   id="svg8"
   sodipodi:docname="avatar.svg"
   inkscape:version="0.92.5 (2060ec1f9f, 2020-04-08)">
  <defs
     id="defs2" />
  <sodipodi:namedview
     id="base"
     pagecolor="#ffffff"
     bordercolor="#666666"
     borderopacity="1.0"
     inkscape:pageopacity="0.0"
     inkscape:pageshadow="2"
     inkscape:zoom="1.28"
     inkscape:cx="533.94691"
     inkscape:cy="374.2158"
     inkscape:document-units="px"
     inkscape:current-layer="svg8"
     showgrid="false"
     showborder="true"
     inkscape:snap-global="false"
     inkscape:window-width="1848"
     inkscape:window-height="1016"
     inkscape:window-x="72"
     inkscape:window-y="27"
     inkscape:window-maximized="1"
     inkscape:pagecheckerboard="false" />
  <metadata
     id="metadata5">
    <rdf:RDF>
      <cc:Work
         rdf:about="">
        <dc:format>image/svg+xml</dc:format>
        <dc:type
           rdf:resource="http://purl.org/dc/dcmitype/StillImage" />
        <dc:title />
      </cc:Work>
    </rdf:RDF>
  </metadata>
  <g
     inkscape:groupmode="layer"
     id="layer3"
     inkscape:label="Layer 2" />
  <g
     id="g328">
    <path
       inkscape:connector-curvature="0"
       id="path294"
       d="m 192.288,150.85905 6.76961,6.09782 -0.77514,2.94555 2.48047,2.68718 -7.75147,8.88834 -2.58382,0.77515 0.51677,8.42326 c 0,0 -14.10767,3.04891 -14.36605,3.04891 -0.25839,0 -11.93726,-0.41341 -12.55737,-0.8785 -0.62012,-0.46509 -6.04615,-5.11597 -6.40788,-6.97632 -0.36174,-1.86035 -2.58383,-13.02246 -1.70533,-15.45125 0.8785,-2.42879 11.52385,-9.04338 13.3842,-9.61182 1.86035,-0.56844 12.24731,-1.13688 13.43587,-1.13688 1.18856,0 9.56014,1.18856 9.56014,1.18856 z"
       style="fill:#ffffff;stroke:none;stroke-width:0.26458332px;stroke-linecap:butt;stroke-linejoin:miter;stroke-opacity:1" />
    <path
       inkscape:connector-curvature="0"
       id="path292"
       d="m 90.330403,92.361326 -0.723469,-10.231933 16.226396,10.025227 12.91911,-10.541992 3.92741,4.030763 -1.86035,7.2347 4.34082,0.103352 -1.5503,22.530927 -38.240555,-0.51677 -1.343586,-22.737626 z"
       style="fill:#ffffff;stroke:#000000;stroke-width:0.26458332px;stroke-linecap:butt;stroke-linejoin:miter;stroke-opacity:1" />
    <path
       inkscape:connector-curvature="0"
       id="path1518"
       d="m 13.048901,190.85817 7.70435,20.13885 -5.637329,8.71991 10.898838,7.88947 -2.630752,8.71991 23.488881,11.41893 116.316911,0.41525 24.05266,-12.24944 -7.70439,-8.09706 15.78453,-7.6818 -9.58345,-9.96562 20.85814,-17.85506 -13.15377,-10.17325 -21.79769,-1.03809 z"
       style="fill:#ffffff;stroke:none;stroke-width:1.01129448px;stroke-linecap:butt;stroke-linejoin:miter;stroke-opacity:1" />
    <path
       sodipodi:nodetypes="ccccccccccccccscccsccc"
       inkscape:connector-curvature="0"
       id="path1501-6"
       d="M 71.386764,81.063961 13.957506,47.927447 10.564631,51.270231 5.5670209,108.01952 c 2.9683781,16.33573 -1.6025028,32.67146 9.3227751,49.00718 l 3.729098,17.50253 -4.195256,11.085 -8.8566171,3.50048 c -4.67801503,3.50051 -0.5567629,7.00102 3.2629707,10.50153 l 9.3227764,4.08394 2.330678,6.4176 -4.661391,8.75128 c -1.276115,2.57745 2.407458,10.74466 6.992105,6.41759 1.864543,1.16683 9.322758,4.08392 11.653458,1.16683 2.3307,-2.91709 12.585675,-20.41963 12.585675,-27.42068 0,-7.001 17.109515,-32.61915 17.109515,-32.61915 0,0 -38.551813,-0.0523 -33.890422,-4.13623 4.661397,-4.08394 13.984135,-5.83416 22.374575,-14.00202 8.390564,-8.16787 14.916468,-10.50149 14.916468,-18.66935 0,-8.16789 -0.466134,-15.16891 -0.466134,-15.16891 l 31.322028,-1.4372 C 114.03659,89.340219 80.751647,91.522195 71.386764,81.063961 Z"
       style="fill:#ffffff;stroke:none;stroke-width:0.9440015px;stroke-linecap:butt;stroke-linejoin:miter;stroke-opacity:1" />
    <path
       inkscape:connector-curvature="0"
       id="path1501"
       d="m 133.85752,81.690391 62.18461,-35.233773 5.84644,5.872291 3.72044,54.612361 -10.62985,49.32733 -4.25192,17.61688 4.78344,11.15737 10.09833,3.52335 -3.72044,10.57016 -10.62988,4.1106 -2.65742,6.45951 5.31492,8.80847 c 0,0 -5.84644,5.28503 -7.97242,6.45952 -2.12594,1.17446 -10.62984,4.1106 -13.28726,1.17446 -2.6575,-2.93615 -14.35033,-20.55305 -14.35033,-27.59982 0,-7.04672 18.07075,-18.20411 18.07075,-18.20411 0,0 6.3779,-14.68073 1.06298,-18.79135 -5.31492,-4.11062 -15.94481,-5.8723 -25.51165,-14.09354 -9.5669,-8.2212 -17.00777,-10.57009 -17.00777,-18.7913 0,-8.22126 0.53152,-15.26798 0.53152,-15.26798 l -3.18897,-18.791358 z"
       style="fill:#ffffff;stroke:none;stroke-width:1.01129448px;stroke-linecap:butt;stroke-linejoin:miter;stroke-opacity:1" />
    <rect
       y="95.165306"
       x="51.133835"
       height="155.26825"
       width="111.14039"
       id="rect1187"
       style="fill:#ffffff;stroke:none;stroke-width:0.76981628;stroke-opacity:1" />
    <path
       inkscape:connector-curvature="0"
       id="path830"
       d="m 125.67981,189.03455 c 0.51541,-0.28484 20.35881,-22.96838 48.36294,-15.85005 4.03739,0.66436 0.34364,3.60659 0.34364,3.60659 0,0 -14.08797,-3.4168 -25.25528,0.47456 -11.16726,3.89132 -17.00861,10.81981 -20.53063,13.38242 -3.52196,2.56257 -2.92067,-1.61352 -2.92067,-1.61352 z"
       style="fill:#333333;stroke:none;stroke-width:1.01129448px;stroke-linecap:butt;stroke-linejoin:miter;stroke-opacity:1" />
    <path
       inkscape:connector-curvature="0"
       id="path832"
       d="M 85.007462,188.8536 C 61.80401,165.36442 36.778297,173.14939 36.778297,173.14939 c 0,0 -1.579289,3.62407 1.943749,3.22137 3.523029,-0.40265 12.512873,-2.55023 20.773784,0.67115 8.260912,3.22137 11.783942,3.22137 23.324943,13.95928 0,0 2.429666,2.28178 2.186689,-2.14759 z"
       style="fill:#333333;stroke:none;stroke-width:1.01129448px;stroke-linecap:butt;stroke-linejoin:miter;stroke-opacity:1" />
    <path
       sodipodi:nodetypes="csccscccccssccscscsscsc"
       inkscape:connector-curvature="0"
       id="path860"
       d="m 78.175907,89.283457 c 0,0 7.387581,70.613553 12.885305,65.678173 5.497759,-4.93535 -0.51541,-59.98354 -0.51541,-59.98354 0,0 4.466941,4.365876 0.51541,-10.060527 0,0 7.731211,3.416807 8.76203,6.264098 1.030858,2.847335 1.030858,63.590179 4.810538,63.779969 3.77968,0.19003 3.60789,-3.98622 3.60789,-3.98622 0,0 3.4361,-9.87073 3.09246,-61.122463 0,0 7.90303,-8.9216 8.24662,-5.125168 0.34363,3.796416 -3.95149,6.643722 -1.37441,9.870684 2.57705,3.226972 3.43609,-0.569467 3.43609,0.189637 0,0.759287 -5.84136,69.28476 -0.68722,60.17336 5.15412,-9.11142 10.13643,-37.20498 12.36989,-66.817135 0,0 0.68723,-4.365879 -8.93381,-0.379665 0,0 1.88986,-8.352099 -0.34363,-8.352099 -2.23345,0 -8.0748,-1.898213 -19.24211,9.87069 0,0 -14.259785,-15.185701 -17.867649,-10.440149 -3.607901,4.745504 1.374413,7.972471 0.34363,8.731774 -0.640352,0.471671 -2.247052,-0.134193 -4.462504,-1.485844 -0.956856,-0.583853 -1.994329,-1.138639 -2.708534,-2.138475 -0.261815,-0.36641 -0.585482,-0.830516 -1.247398,-1.121198 0,0 -7.90299,-2.657505 -9.449217,-0.759289 -1.546228,1.898215 8.762029,7.213181 8.762029,7.213181 z"
       style="fill:#1a1a1a;stroke:none;stroke-width:1.01129448px;stroke-linecap:butt;stroke-linejoin:miter;stroke-opacity:1" />
    <path
       inkscape:connector-curvature="0"
       id="path862"
       d="m 151.70816,93.839162 c 0,0 30.23759,-19.551577 39.51502,-19.741411 9.27745,-0.189632 -1.37444,74.599779 -1.37444,74.599779 0,0 1.54623,4.93534 2.57708,3.22697 1.03082,-1.70838 10.65185,-81.433339 3.60786,-83.521385 -7.04394,-2.088046 -32.29922,10.819814 -53.08754,26.00551 z"
       style="fill:#1a1a1a;stroke:none;stroke-width:1.01129448px;stroke-linecap:butt;stroke-linejoin:miter;stroke-opacity:1" />
    <path
       sodipodi:nodetypes="ccccccc"
       inkscape:connector-curvature="0"
       id="path864"
       d="m 19.075193,149.83646 c -0.515413,-4.93536 -8.24661,-28.09356 -3.092481,-81.053719 0.515416,-0.56946 0.171816,-9.870688 50.854083,24.866595 0,0 -6.184948,2.467706 -6.872172,1.328752 -0.687188,-1.138926 -41.061235,-26.9546 -40.88943,-21.829422 0.171815,5.125176 -4.123307,65.298514 3.092477,71.942274 0.424488,3.25967 -0.635723,4.80762 -3.092477,4.74552 z"
       style="fill:#1a1a1a;stroke:none;stroke-width:1.01129448px;stroke-linecap:butt;stroke-linejoin:miter;stroke-opacity:1" />
    <path
       sodipodi:nodetypes="ccccccc"
       inkscape:connector-curvature="0"
       id="path866"
       d="m 14.436473,154.96163 c 0,0 -14.25976364,-38.53371 -2.405261,-104.022077 0,0 8.762024,-1.518565 56.008216,30.371421 2.544683,4.9701 7.215803,1.012365 10.823667,1.51859 0,0 -63.911209,-45.367321 -68.549926,-38.723574 0,0 -17.8224973,67.00018 0.859022,113.32335 1.513607,0.0591 2.748276,-0.45998 3.264282,-2.46771 z"
       style="fill:#1a1a1a;stroke:none;stroke-width:1.01129448px;stroke-linecap:butt;stroke-linejoin:miter;stroke-opacity:1" />
    <path
       sodipodi:nodetypes="ccccscc"
       inkscape:connector-curvature="0"
       id="path868"
       d="m 196.89272,156.29038 c 0,0 14.43157,-40.05229 2.57708,-105.350827 -0.85904,-0.379625 -20.61655,5.125161 -56.00822,30.371421 -6.19458,2.904028 -12.66891,4.509714 -19.07029,6.453891 0,0 69.58076,-50.302622 77.65557,-42.899591 8.0748,7.403016 8.41843,82.951916 -1.37442,114.272446 -1.4926,-0.71642 -2.95563,-1.46241 -3.77972,-2.84734 z"
       style="fill:#1a1a1a;stroke:none;stroke-width:1.01129448px;stroke-linecap:butt;stroke-linejoin:miter;stroke-opacity:1" />
    <path
       sodipodi:nodetypes="cccscccsc"
       inkscape:connector-curvature="0"
       id="path874"
       d="m 22.16767,145.09094 c 0,0 3.312615,-2.00769 8.414945,-8.71891 -0.971874,-1.34222 -7.28904,-12.88548 -12.148404,-15.03307 0,0 -2.186715,-5.36897 1.943744,-4.56359 4.130456,0.80533 9.961693,3.4898 29.642113,-6.44276 0,0 -12.877304,-15.838449 -8.746867,-16.912236 4.130474,-1.073799 19.194503,1.610707 19.194503,1.610707 0,0 -38.482177,-26.038619 -41.397795,-22.548821 -2.915615,3.489839 -3.616407,69.24741 3.097761,72.60868 z"
       style="fill:#ffaaaa;stroke:none;stroke-width:1.01129448px;stroke-linecap:butt;stroke-linejoin:miter;stroke-opacity:1" />
    <path
       sodipodi:nodetypes="cccccscssssssccccscccssccc"
       inkscape:connector-curvature="0"
       id="path908"
       d="m 22.16767,145.09094 -3.092477,4.74552 -4.63872,5.12517 -3.264282,2.46767 c 0,0 -2.529596,4.25737 -5.7610704,3.69365 0,0 -1.7007788,1.87913 0.6803115,3.57035 2.3810863,1.69123 3.5716289,0 6.2928719,-1.50331 2.721245,-1.50332 25.001401,-25.36832 23.640795,-28.18701 -1.36062,-2.81873 -11.735356,-11.65066 -10.204659,-12.40232 1.530701,-0.75167 25.851817,-4.88573 28.062797,-10.1473 2.211016,-5.26158 -5.782627,-12.21438 -5.612557,-12.02647 0.170179,0.18802 -3.74168,-3.758305 3.231472,-2.25498 6.973187,1.503312 19.899109,4.88576 20.919564,2.44288 1.020456,-2.44288 2.040947,-1.503313 -1.530701,-12.778136 l 7.284892,1.446803 -10.136479,-7.972483 c 0,0 -4.63181,0.1366 -4.971986,1.827862 -0.339995,1.691222 10.138479,9.128796 3.769353,10.510541 l -6.369091,1.381704 c 0,0 -19.000106,-3.811969 -19.510352,-1.557002 -0.510245,2.25494 -0.753187,3.087152 9.062716,16.858531 0.0028,-0.004 -18.215831,9.04482 -24.709859,7.19441 -6.303528,-1.79615 -9.693618,-1.12393 -6.899489,3.70812 0.236033,0.40824 0.346649,0.32584 0.528889,0.47437 3.945049,2.16971 8.195768,9.54461 11.643006,14.66252 l -8.414945,8.71891"
       style="fill:#1a1a1a;stroke:none;stroke-width:1.01129448px;stroke-linecap:butt;stroke-linejoin:miter;stroke-opacity:1" />
    <path
       sodipodi:nodetypes="cccsccssc"
       inkscape:connector-curvature="0"
       id="path932"
       d="m 168.68569,93.568014 c 0,0 5.61256,-1.033529 -8.16376,15.596836 0,0 17.77311,12.49625 29.50848,7.32864 -0.17927,0.1583 5.12555,0.73735 0.79449,4.34435 -4.62129,3.84873 -10.75621,11.27204 -11.16922,13.9772 -0.51021,2.63079 10.19306,13.88249 10.19306,13.88249 0.41013,0.0402 6.73057,-51.451726 4.94384,-64.337255 -1.78099,-12.844297 -2.4945,-9.999569 -3.39263,-10.380923 -1.02406,-0.434788 -14.66091,3.215595 -39.69179,19.85981"
       style="fill:#ffaaaa;stroke:none;stroke-width:1.01129448px;stroke-linecap:butt;stroke-linejoin:miter;stroke-opacity:1" />
    <path
       inkscape:connector-curvature="0"
       id="path958"
       d="m 143.46154,81.310974 c 0,0 6.60065,-0.615019 3.19908,4.082802 -3.40155,4.697859 -5.72816,8.070303 -3.71446,9.014849 2.01368,0.944586 8.762,-0.569463 8.762,-0.569463 l 16.97753,-0.271189 c 0,0 5.86764,-0.563746 -8.16376,15.596837 0,0 17.43297,12.49624 29.50848,7.32864 0,0 4.67716,0.84559 1.27561,3.94617 -3.40158,3.10057 -11.48027,12.49624 -11.73535,13.90559 -0.25527,1.40935 1.59251,5.77909 10.27807,14.35228 0,0 3.26431,4.74552 7.04398,7.59285 3.77972,2.84734 3.77972,2.84734 3.77972,2.84734 0,0 4.57,0.66435 4.2092,2.92323 -0.36072,2.25887 -1.92422,5.04924 -6.25367,1.72738 -4.3295,-3.32186 -27.54026,-25.91061 -23.69185,-30.827 3.8484,-4.91634 11.90606,-10.36421 9.50079,-10.8957 -2.40527,-0.53153 -33.31288,-6.11227 -29.58473,-11.56014 3.72816,-5.44788 11.30474,-13.021724 5.65237,-12.490234 -5.65237,0.531489 -25.25524,5.713604 -24.17285,1.195859 1.08234,-4.517719 5.89288,-12.850894 1.44313,-11.95874 -4.44973,0.892154 -4.44973,0.892154 -4.44973,0.892154 l -8.93381,-0.379665 z"
       style="fill:#1a1a1a;stroke:none;stroke-width:1.01129448px;stroke-linecap:butt;stroke-linejoin:miter;stroke-opacity:1" />
    <path
       sodipodi:nodetypes="cccccccccccccscsscscsccscc"
       inkscape:connector-curvature="0"
       id="path984"
       d="m 16.549666,172.69097 c 0,0 -5.772628,13.28749 -17.07735513,17.53948 0,0 -1.20263087,8.504 19.60288213,20.59563 0,0 2.525523,3.18901 -8.298151,8.63688 0,0 -3.3673679,3.98622 14.070779,10.89571 0,0 -0.721581,3.3219 -5.892891,5.58078 0,0 2.04447,7.44098 24.653939,14.35047 l 13.228936,0.26557 c 0,0 -33.072352,-11.42725 -30.546828,-14.35052 2.525524,-2.92323 4.569996,-1.19585 6.373941,-4.51776 1.803947,-3.32185 -2.405261,-4.91634 -6.854995,-6.37798 -4.449734,-1.46162 -11.184464,-2.92324 -7.09552,-6.7766 4.088944,-3.85339 9.621044,-9.03549 6.494207,-9.56699 -3.12684,-0.53154 -3.367367,-1.99315 1.082367,-2.92327 4.449734,-0.93012 12.266817,-5.315 9.13999,-6.11223 -3.126836,-0.79726 -23.090509,1.06298 -25.134979,-1.32875 -2.0444735,-2.39174 -7.8772311,-7.97252 -2.6457869,-9.30127 5.2314439,-1.32876 27.2997159,-1.99311 29.5245989,-4.11913 2.22487,-2.12597 5.231436,-4.11912 -3.307249,-5.71359 -8.538678,-1.59452 -15.874725,0.33226 -13.108674,-4.51776 2.766049,-4.84993 0.656849,-3.26187 -2.285001,-6.17868 -1.977544,-1.96073 -8.255054,-11.75098 -7.301685,-11.34186 l -5.7610704,3.69366 c 0,0 -3.2314757,2.06703 3.9543054,6.10716 7.185781,4.04013 6.970102,4.90843 7.18424,5.46085 z"
       style="fill:#1a1a1a;stroke:none;stroke-width:1.01129448px;stroke-linecap:butt;stroke-linejoin:miter;stroke-opacity:1" />
    <path
       inkscape:connector-curvature="0"
       id="path986"
       d="m 188.52585,169.76769 c 0,0 -2.64577,1.32876 2.16473,7.44104 0,0 -26.69837,3.18899 -19.60287,6.77662 7.09552,3.58762 32.8318,2.39174 33.19259,6.9095 0.36073,4.51774 -3.48761,8.90259 -8.53865,7.8396 -5.05107,-1.06298 -28.86313,-1.46162 -21.52711,3.45477 7.33606,4.91634 15.6342,4.11912 12.26683,6.11222 -3.36735,1.99311 -4.32944,1.063 -1.32288,4.91639 3.00657,3.85335 11.54525,7.30811 6.25367,8.76973 -5.29158,1.46162 -17.19762,5.84651 -13.34918,9.30128 3.84841,3.45472 11.0642,3.45472 3.00656,7.57384 -8.05764,4.11911 -27.78076,11.693 -27.78076,11.693 l 12.86814,0.13296 c 0,0 27.17947,-9.567 24.05261,-15.41349 -3.12681,-5.84651 -8.7792,-4.51776 -4.32945,-6.2451 4.4497,-1.72739 17.07734,-5.84651 12.38709,-10.36425 -4.69028,-4.51776 -9.98182,-6.77663 -5.41183,-8.23825 4.57,-1.46161 19.72311,-16.74225 16.59629,-20.72851 -3.12685,-3.98625 -19.36235,-15.2806 -14.55181,-17.67237 4.8105,-2.39175 9.62102,-7.17526 9.26023,-8.76973 -0.36072,-1.59449 -3.48761,-4.11912 -3.48761,-4.11912 0,0 -1.32293,7.30811 -12.14659,10.62997 z"
       style="fill:#1a1a1a;stroke:none;stroke-width:1.01129448px;stroke-linecap:butt;stroke-linejoin:miter;stroke-opacity:1" />
    <path
       sodipodi:nodetypes="ccccccscscsssscscsssscccsscc"
       inkscape:connector-curvature="0"
       id="path1091"
       d="m 145.95274,178.66728 c 0,0 21.23391,31.67945 -2.63077,71.54191 l 10.33511,0.20772 c 0,0 30.6295,-12.87226 30.81742,-14.74083 0.18801,-1.86856 -8.26811,-3.94471 -7.51645,-6.02087 0.75166,-2.07619 3.75823,-6.22854 15.78453,-8.71991 0,0 -12.40211,-8.92763 -10.14721,-11.21142 2.25494,-2.28378 4.88571,-2.69905 4.88571,-2.69905 0,0 -18.03949,-6.02086 -15.03287,-7.88942 3.00656,-1.86857 23.30094,-1.24571 24.24051,-1.03809 0.93956,0.20772 14.46914,-5.39805 4.88567,-9.5504 -9.58347,-4.15235 -34.87831,-4.52204 -31.38114,-6.85135 5.30509,-3.53346 20.1161,-3.71053 20.1065,-4.98282 -0.0105,-1.24568 -4.32197,-6.22851 -1.50328,-7.05899 2.81864,-0.83045 9.77136,-6.64374 9.77136,-6.64374 0,0 -26.30755,-23.46073 -23.30099,-30.10446 3.0066,-6.64376 9.7714,-10.58847 9.7714,-10.58847 0,0 -34.01193,-6.8514 -30.81743,-12.45705 3.19449,-5.60565 11.65049,-13.079849 6.5769,-12.249402 -5.07362,0.830489 -27.62294,7.681842 -24.42844,0.207718 3.19448,-7.47422 3.1757,-11.110721 0.92076,-10.07261 -2.25494,1.038084 -3.73945,-0.308239 -4.30315,4.466962 0,0 -4.50988,45.260512 -6.76482,46.713812 0,0 10.90828,35.32008 17.29727,35.73534 0.12474,3.97995 13.01973,-7.68208 30.73957,-1.67138 3.98197,1.35068 -0.82166,3.46437 -0.82166,3.46437 -7.92971,-4.38537 -28.10112,0.36359 -27.4845,2.21251 z"
       style="fill:#b3b3b3;stroke:none;stroke-width:1.01129448px;stroke-linecap:butt;stroke-linejoin:miter;stroke-opacity:1" />
    <path
       inkscape:connector-curvature="0"
       id="path988"
       d="m 159.41643,214.86622 c 0,0 4.42203,-3.9462 12.75584,-3.00664 2.63619,0.46979 0.59527,5.44953 -1.95589,4.04018 -2.55119,-1.40939 -5.35746,0.18802 -9.01413,1.69122 -3.65667,1.50327 -1.78582,-2.72476 -1.78582,-2.72476 z"
       style="fill:#1a1a1a;stroke:none;stroke-width:1.01129448px;stroke-linecap:butt;stroke-linejoin:miter;stroke-opacity:1" />
    <path
       inkscape:connector-curvature="0"
       id="path990"
       d="m 159.41643,220.87945 c 0,0 -4.67713,3.47638 11.14009,7.14071 0,-0.46978 2.89134,-2.34891 -3.5716,-4.50992 -6.46299,-2.161 -7.56849,-2.63079 -7.56849,-2.63079 z"
       style="fill:#1a1a1a;stroke:none;stroke-width:1.01129448px;stroke-linecap:butt;stroke-linejoin:miter;stroke-opacity:1" />
    <path
       sodipodi:nodetypes="ccccssccccscscscscccsccccccsssc"
       inkscape:connector-curvature="0"
       id="path1053"
       d="m 65.432856,179.25728 c 0,0 -22.462085,30.21057 3.100527,71.27346 l -11.695578,0.0241 c 0,0 -26.135672,-9.75719 -29.457502,-13.5742 -0.13287,-0.58661 -1.448248,-1.61423 2.405074,-3.37593 3.85332,-1.7617 1.927709,-4.32808 1.328731,-6.0191 -0.155998,-0.44041 -12.906348,-3.6702 -11.559967,-7.7808 3.853323,-4.11064 8.76963,-8.368 6.24504,-10.42331 -2.524591,-2.05535 -7.839518,-0.88087 6.377913,-5.72549 0,0 8.238122,-4.11064 1.727351,-3.817 -6.510785,0.29369 -21.781757,-0.0964 -24.4392201,-3.61985 -2.6574669,-3.52338 -4.7928768,-5.92263 -2.1354139,-6.6567 2.6574629,-0.73402 28.301986,-2.64251 30.162219,-4.69782 1.860223,-2.0553 5.314926,-3.37659 -4.916318,-6.0191 0,0 -13.685934,1.61485 -12.224331,-3.22978 1.461604,-4.84467 2.125971,-6.16591 0.265742,-6.31271 -1.860223,-0.14664 -11.172513,-6.272 -7.440897,-8.22124 4.037828,-2.10914 21.186684,-17.16616 22.721312,-25.39769 L 25.533433,123.05868 c 0,0 23.651413,-5.57869 26.441764,-9.54248 0,0 1.860223,0.14664 1.860223,-3.96381 0,-4.1106 -7.042278,-9.54248 -5.979278,-11.010568 1.062963,-1.468088 17.67213,3.523378 20.993964,3.082978 3.321796,-0.44041 7.403689,2.2256 2.040909,-13.788174 l 7.284892,1.446803 c 0,0 7.150459,49.630441 6.751848,51.979361 -0.398612,2.34891 -15.413298,35.52743 -17.937909,34.94017 -8.172403,-2.94954 -15.109228,-4.57757 -20.204631,-4.20956 -4.640356,0.33507 -10.006918,1.15596 -10.073135,1.42659 -0.641575,2.62251 1.441466,3.39916 5.905607,2.66405 8.907445,-1.46672 13.004466,-1.66656 22.815169,3.17321 z"
       style="fill:#b3b3b3;stroke:none;stroke-width:1.01129448px;stroke-linecap:butt;stroke-linejoin:miter;stroke-opacity:1" />
    <path
       inkscape:connector-curvature="0"
       id="path992"
       d="m 39.979406,224.59074 c 0,0 9.524344,-5.0267 11.182606,-3.57034 1.658262,1.45631 -0.297813,3.66428 -0.297813,3.66428 0,0 -6.250365,2.02007 -8.078697,3.7583 -1.828332,1.73819 -5.357434,-1.26845 -2.806278,-3.85224 z"
       style="fill:#1a1a1a;stroke:none;stroke-width:1.01129448px;stroke-linecap:butt;stroke-linejoin:miter;stroke-opacity:1" />
    <path
       inkscape:connector-curvature="0"
       id="path994"
       d="m 50.779327,216.83933 c 2.083456,1.59724 2.678718,-3.47642 0.680316,-3.00664 -1.998402,0.46977 -11.6078,-2.30195 -11.6078,-2.30195 0,0 -4.59209,1.40935 0.552755,3.7583 0,0 8.376327,0.7047 10.374729,1.55029 z"
       style="fill:#1a1a1a;stroke:none;stroke-width:1.01129448px;stroke-linecap:butt;stroke-linejoin:miter;stroke-opacity:1" />
    <path
       inkscape:connector-curvature="0"
       id="path1008"
       d="m 93.518042,216.27396 h 8.899448 c 0,0 4.69028,-2.98968 6.73476,0.13296 l 10.34261,-0.26597 c 0,0 5.95303,-3.05614 5.83274,-1.19588 -0.12039,1.86024 -3.30722,4.05266 -5.29155,3.72048 0,0 2.94643,16.67593 -14.0708,16.74238 -17.017202,0.0663 -13.289049,-16.14431 -13.890383,-16.6758 -0.601299,-0.53149 -4.449741,1.12943 -4.810499,-3.05614 0,0 -0.420938,-3.78694 3.668009,-0.99657 4.088948,2.79041 2.585665,1.59451 2.585665,1.59451 z"
       style="fill:#1a1a1a;stroke:none;stroke-width:1.01129448px;stroke-linecap:butt;stroke-linejoin:miter;stroke-opacity:1" />
    <path
       inkscape:connector-curvature="0"
       id="path996"
       d="m 108.43731,219.48547 c -0.54119,1.66092 0.84184,9.23476 -2.22487,10.82929 -3.06671,1.59447 -2.34513,-10.8291 -2.34513,-11.09507 0,-0.26596 -9.200124,0.19928 -9.200124,0.19928 0,0 1.984329,14.01829 10.402764,13.55325 8.4184,-0.46508 8.95959,-4.31844 12.6276,-12.55668 -4.2092,-2.92324 -9.26024,-0.93007 -9.26024,-0.93007 z"
       style="fill:#ffaaaa;stroke:none;stroke-width:1.01129448px;stroke-linecap:butt;stroke-linejoin:miter;stroke-opacity:1" />
    <path
       inkscape:connector-curvature="0"
       id="path1039"
       d="m 142.94616,94.408625 9.13876,-0.860091 c 0,0 -5.42827,3.332871 -9.13876,0.860091 z"
       style="fill:#1a1a1a;stroke:none;stroke-width:0.44006371px;stroke-linecap:butt;stroke-linejoin:miter;stroke-opacity:1" />
    <path
       sodipodi:nodetypes="ccccccsc"
       inkscape:connector-curvature="0"
       id="path1065"
       d="m 143.69778,81.322827 c -0.60089,-0.497946 37.74136,-24.730275 54.49424,-27.61305 1.2215,-4.312092 14.48268,48.698663 -1.21882,102.471453 l -4.79436,-4.26859 c -0.69031,0.40137 9.94376,-56.703224 4.50988,-83.462076 -0.27017,0.492762 -6.50694,-6.387681 -52.99094,25.329299 -2.63075,-0.415258 -1.46273,-1.489058 2.44288,-8.09706 3.18288,-5.385237 -2.86355,-3.895176 -2.44288,-4.359976 z"
       style="fill:#999999;stroke:none;stroke-width:1.01129448px;stroke-linecap:butt;stroke-linejoin:miter;stroke-opacity:1" />
    <path
       sodipodi:nodetypes="csccsccc"
       inkscape:connector-curvature="0"
       id="path1179"
       d="m 92.767255,123.05871 c 0,0 8.292695,-7.65187 7.706665,-19.37859 L 99.875968,91.715323 c -0.489156,-1.834607 -5.166637,-5.484397 -8.24953,-6.271892 -0.606099,0.446447 3.26678,9.721843 1.406558,10.015452 -1.860223,0.293678 -2.308651,-0.02011 -2.308651,-0.02011 0.998055,6.481857 1.359286,18.183137 2.04291,27.618157 z"
       style="fill:#cccccc;stroke:none;stroke-width:1.01129448px;stroke-linecap:butt;stroke-linejoin:miter;stroke-opacity:1" />
    <path
       sodipodi:nodetypes="cccsccc"
       inkscape:connector-curvature="0"
       id="path1181"
       d="m 111.62053,90.0863 c 0,0 5.86113,-6.785708 7.45561,-6.198448 2.1812,0.479139 -2.03458,8.324448 -2.12596,8.341287 0,0 1.45056,6.352325 2.92319,4.110599 2.51421,-3.827153 -0.26581,22.901982 -0.26581,22.901982 0,0 -8.62869,-12.29775 -8.36295,-15.82113 0.6793,-3.34063 0.57141,-13.247838 0.37585,-13.33429 z"
       style="fill:#b3b3b3;stroke:none;stroke-width:1.01129448px;stroke-linecap:butt;stroke-linejoin:miter;stroke-opacity:1" />
    <path
       sodipodi:nodetypes="ccsccccsc"
       inkscape:connector-curvature="0"
       id="path1065-3"
       d="M 67.32835,81.255531 C 67.897613,80.749067 29.314848,54.780236 13.443818,51.848085 12.624883,48.136906 2.5625218,86.74202 9.19416,132.17718 c 0.908242,6.22259 3.595505,15.20297 5.184903,21.64228 1.773748,-2.19404 4.122787,-3.87743 4.362801,-4.50812 0.598604,4.34841 -9.200914,-36.67864 -3.209526,-81.882663 0.256105,0.5012 10.68216,-6.497118 50.20153,25.763324 5.38118,-0.06224 3.189364,-1.954286 -2.31425,-8.23578 -4.035931,-4.606346 4.307234,-3.227934 3.908732,-3.70069 z"
       style="fill:#999999;stroke:none;stroke-width:0.99271506px;stroke-linecap:butt;stroke-linejoin:miter;stroke-opacity:1" />
  </g>
</svg>
