<svg xmlns="http://www.w3.org/2000/svg" width="461.373" height="466.511" viewBox="0 0 461.373 466.511"><defs><style>.a{opacity:0.78;}.b{fill:#fff;}</style></defs><g class="a" transform="translate(-960 -438)"><path class="b" d="M228.631,0A228.362,228.362,0,0,1,411.158,90.927H336.813l32.305,40.5L264.287,213.515,125.352,178.5,0,228.631H0C0,102.362,102.362,0,228.631,0Z" transform="translate(960 438)"/><path class="b" d="M283.293,302.19V222.019l100.59-52.356,26.432,39.647,24.4-67.38s14.987,37.711,14.987,82.79c0,104.8-70.516,193.136-166.755,220.16h0l.342-77.395h82.33v-65.3Z" transform="translate(971.667 451.159)"/><path class="b" d="M227.783,303.022h-83.7v63.255h84.558v85.51h0c-117.43,0-215.662-80.417-228.631-194.361-.978-8.594,0-13.555,0-13.555L129.378,198.69l98.4,27.755Z" transform="translate(964.099 452.723)"/></g></svg>