<?xml version="1.0" encoding="iso-8859-1"?>
<!-- Generator: Adobe Illustrator 15.0.0, SVG Export Plug-In . SVG Version: 6.00 Build 0)  -->
<!DOCTYPE svg PUBLIC "-//W3C//DTD SVG 1.1//EN" "http://www.w3.org/Graphics/SVG/1.1/DTD/svg11.dtd">
<svg version="1.1" id="Layer_1" xmlns="http://www.w3.org/2000/svg" xmlns:xlink="http://www.w3.org/1999/xlink" x="0px" y="0px"
	 width="128px" height="128px" viewBox="0 0 128 128" style="enable-background:new 0 0 128 128;" xml:space="preserve">
<g>
	<circle style="fill:#4AB8A1;" cx="64" cy="64" r="64"/>
	<path style="fill:#242424;" d="M19.527,110C31.043,121.136,46.715,128,64,128s32.957-6.864,44.473-18H19.527z"/>
	<circle style="opacity:0.2;fill:#FFD464;enable-background:new    ;" cx="49.953" cy="33.75" r="6"/>
	<circle style="opacity:0.2;fill:#FFD464;enable-background:new    ;" cx="49.953" cy="33.75" r="10"/>
	<circle style="opacity:0.2;fill:#FFD464;enable-background:new    ;" cx="49.953" cy="33.75" r="15"/>
	<path style="fill:#FFD464;" d="M52.953,33.969c0-1.657-1.343-3-3-3c-1.657,0-3,1.343-3,3c0,0.011,0.003,0.021,0.003,0.031h-0.003v4
		h6v-4H52.95C52.95,33.989,52.953,33.979,52.953,33.969z"/>
	<rect x="46.953" y="37" style="fill:#F2C95F;" width="6" height="1"/>
	<path style="fill:#F5F5F5;" d="M63.953,36v4h-22c-4.4,0-8,3.6-8,8v20.566l-15,2.434c-2.2,0-4,1.8-4,4v20c0,2.2,1.8,4,4,4h49h32
		h17.617C124.157,88.939,128,76.922,128,64c0-11.661-3.134-22.584-8.583-32H67.953C65.753,32,63.953,33.8,63.953,36z"/>
	<rect x="62.953" y="40" style="fill:#E6E6E6;" width="1" height="56"/>
	<path style="fill:#C2E2F2;" d="M37.953,66V48c0-2.206,1.794-4,4-4h19v22H37.953z"/>
	<circle style="fill:#242424;" cx="41.828" cy="99.25" r="11"/>
	<circle style="fill:#F5F5F5;" cx="41.828" cy="99.25" r="7"/>
	<circle style="fill:#263740;" cx="41.828" cy="99.25" r="3"/>
	<path style="fill:#CC584C;" d="M126.445,78H14.953v4h110.462C125.801,80.684,126.145,79.35,126.445,78z"/>
	<path style="fill:#CC584C;" d="M44.953,40L44.953,40c0-1.1,0.9-2,2-2h6c1.1,0,2,0.9,2,2l0,0H44.953z"/>
	<polygon style="fill:#CC584C;" points="88.953,50 83.953,50 83.953,45 77.953,45 77.953,50 72.953,50 72.953,56 77.953,56 
		77.953,61 83.953,61 83.953,56 88.953,56 	"/>
</g>
</svg>
