<?xml version="1.0" encoding="iso-8859-1"?>
<!-- Generator: Adobe Illustrator 19.0.0, SVG Export Plug-In . SVG Version: 6.00 Build 0)  -->
<svg version="1.1" id="Capa_1" xmlns="http://www.w3.org/2000/svg" xmlns:xlink="http://www.w3.org/1999/xlink" x="0px" y="0px"
	 viewBox="0 0 491.52 491.52" style="enable-background:new 0 0 491.52 491.52;" xml:space="preserve">
<circle style="fill:#E05B49;" cx="245.76" cy="245.76" r="245.76"/>
<path style="opacity:0.1;enable-background:new    ;" d="M487.025,292.503L299.469,104.946H192.051v68.25h-54.067v11.878h3.84
	v27.392H104.96v174.08L206.834,488.42c12.682,2.019,25.676,3.1,38.926,3.1C365.5,491.52,465.187,405.868,487.025,292.503z"/>
<rect x="104.96" y="212.485" style="fill:#D5D6DB;" width="281.6" height="174.075"/>
<rect x="141.824" y="173.215" style="fill:#EBF0F3;" width="207.867" height="213.345"/>
<rect x="299.131" y="244.106" style="fill:#E1E6E9;" width="37.53" height="37.53"/>
<rect x="301.921" y="246.938" style="fill:#27A2DB;" width="31.908" height="31.908"/>
<rect x="137.969" y="173.215" style="fill:#E1E6E9;" width="215.603" height="11.843"/>
<rect x="198.083" y="297.37" style="fill:#D5D6DB;" width="95.355" height="89.206"/>
<rect x="202.936" y="301.676" style="fill:#64798A;" width="85.647" height="84.884"/>
<rect x="244.05" y="301.676" style="fill:#2F4859;" width="3.425" height="84.884"/>
<rect x="192.051" y="104.96" style="fill:#EBF0F3;" width="107.423" height="68.25"/>
<polygon style="fill:#E56353;" points="266.532,132.554 252.293,132.554 252.293,118.313 239.226,118.313 239.226,132.554 
	224.988,132.554 224.988,145.62 239.226,145.62 239.226,159.859 252.293,159.859 252.293,145.62 266.532,145.62 "/>
<rect x="154.865" y="197.238" style="fill:#E1E6E9;" width="37.53" height="37.53"/>
<rect x="157.691" y="200.038" style="fill:#27A2DB;" width="31.908" height="31.908"/>
<rect x="202.941" y="197.238" style="fill:#E1E6E9;" width="37.53" height="37.53"/>
<rect x="205.773" y="200.038" style="fill:#27A2DB;" width="31.908" height="31.908"/>
<rect x="251.018" y="197.238" style="fill:#E1E6E9;" width="37.53" height="37.53"/>
<rect x="253.844" y="200.038" style="fill:#27A2DB;" width="31.908" height="31.908"/>
<rect x="299.095" y="197.238" style="fill:#E1E6E9;" width="37.53" height="37.53"/>
<rect x="301.921" y="200.038" style="fill:#27A2DB;" width="31.908" height="31.908"/>
<rect x="154.9" y="244.101" style="fill:#E1E6E9;" width="37.53" height="37.53"/>
<rect x="157.691" y="246.938" style="fill:#27A2DB;" width="31.908" height="31.908"/>
<g>
	<polygon style="fill:#6ECAEA;" points="169.724,231.955 162.149,231.955 171.608,200.049 179.183,200.049 	"/>
	<polygon style="fill:#6ECAEA;" points="175.681,231.955 173.226,231.955 182.685,200.049 185.141,200.049 	"/>
	<polygon style="fill:#6ECAEA;" points="217.8,231.955 210.225,231.955 219.684,200.049 227.26,200.049 	"/>
	<polygon style="fill:#6ECAEA;" points="223.758,231.955 221.302,231.955 230.762,200.049 233.217,200.049 	"/>
	<polygon style="fill:#6ECAEA;" points="265.877,231.955 258.301,231.955 267.761,200.049 275.336,200.049 	"/>
	<polygon style="fill:#6ECAEA;" points="271.834,231.955 269.379,231.955 278.838,200.049 281.294,200.049 	"/>
	<polygon style="fill:#6ECAEA;" points="313.953,231.955 306.378,231.955 315.837,200.049 323.413,200.049 	"/>
	<polygon style="fill:#6ECAEA;" points="319.911,231.955 317.455,231.955 326.915,200.049 329.37,200.049 	"/>
	<polygon style="fill:#6ECAEA;" points="169.724,278.819 162.149,278.819 171.608,246.914 179.183,246.914 	"/>
	<polygon style="fill:#6ECAEA;" points="175.681,278.819 173.226,278.819 182.685,246.914 185.141,246.914 	"/>
	<polygon style="fill:#6ECAEA;" points="313.953,278.819 306.378,278.819 315.837,246.914 323.413,246.914 	"/>
	<polygon style="fill:#6ECAEA;" points="319.911,278.819 317.455,278.819 326.915,246.914 329.37,246.914 	"/>
</g>
<rect x="202.977" y="244.122" style="fill:#E1E6E9;" width="37.53" height="37.53"/>
<rect x="205.773" y="246.938" style="fill:#27A2DB;" width="31.908" height="31.908"/>
<rect x="251.054" y="244.101" style="fill:#E1E6E9;" width="37.53" height="37.53"/>
<rect x="253.844" y="246.938" style="fill:#27A2DB;" width="31.908" height="31.908"/>
<g>
	<polygon style="fill:#6ECAEA;" points="217.8,278.819 210.225,278.819 219.684,246.914 227.26,246.914 	"/>
	<polygon style="fill:#6ECAEA;" points="223.758,278.819 221.302,278.819 230.762,246.914 233.217,246.914 	"/>
	<polygon style="fill:#6ECAEA;" points="265.877,278.819 258.301,278.819 267.761,246.914 275.336,246.914 	"/>
	<polygon style="fill:#6ECAEA;" points="271.834,278.819 269.379,278.819 278.838,246.914 281.294,246.914 	"/>
</g>
<g>
</g>
<g>
</g>
<g>
</g>
<g>
</g>
<g>
</g>
<g>
</g>
<g>
</g>
<g>
</g>
<g>
</g>
<g>
</g>
<g>
</g>
<g>
</g>
<g>
</g>
<g>
</g>
<g>
</g>
</svg>
